PathFileType	4	(X/Y/Z)	./resultDataOpenSim/trcMotMarkerGrf/sub10/qtm-05-01.trc
DataRate	CameraRate	NumFrames	NumMarkers	Units	OrigDataRate	OrigDataStartFrame	OrigNumFrames
250.000000	250.000000	6	24	m	250.000000	1	496
Frame#	Time	L.Toe.Tip			R.Toe.Tip			L.Ankle.Lat			R.Ankle.Lat			L.Ankle.Med			R.Ankle.Med			L.Heel			R.Heel			L.Knee.Lat			R.Knee.Lat			L.Knee.Med			R.Knee.Med			L.Thigh.Upper			R.Thigh.Upper			L.ASIS			R.ASIS			V.Sacral			L.Acromium			R.Acromium			C7			L.Elbow			R.Elbow			L.Wrist.Lat			R.Wrist.Lat
		X1	Y1	Z1	X2	Y2	Z2	X3	Y3	Z3	X4	Y4	Z4	X5	Y5	Z5	X6	Y6	Z6	X7	Y7	Z7	X8	Y8	Z8	X9	Y9	Z9	X10	Y10	Z10	X11	Y11	Z11	X12	Y12	Z12	X13	Y13	Z13	X14	Y14	Z14	X15	Y15	Z15	X16	Y16	Z16	X17	Y17	Z17	X18	Y18	Z18	X19	Y19	Z19	X20	Y20	Z20	X21	Y21	Z21	X22	Y22	Z22	X23	Y23	Z23	X24	Y24	Z24

1	0	-1.5580148	0.038525261	-0.10720165	-0.95767528	0.089044024	0.0061616972	-1.6900752	0.07094096	-0.11952592	-1.0956419	0.065601815	0.01870378	-1.6747825	0.093296946	-0.038442929	-1.0747723	0.10551336	-0.05710613	NaN	NaN	NaN	-1.1285919	0.031221375	-0.040717677	-1.5484554	0.43141989	-0.16550366	-1.1843788	0.45250631	0.075268879	-1.5405424	0.40827907	-0.044670984	-1.1665512	0.46715827	-0.051812403	-1.4283505	0.80602791	-0.23466789	-1.3418567	0.83303512	0.1433518	-1.3405519	0.90343258	-0.18544486	-1.2917746	0.92096887	0.056384943	-1.5110797	0.93514584	-0.021340249	-1.3229109	1.3803578	-0.2165723	-1.3573992	1.3858488	0.10345755	-1.4205227	1.4162709	-0.071557867	-1.3070852	1.0354969	-0.28481589	-1.5454454	1.0948408	0.13661623	-1.0782992	0.94284562	-0.23726219	-1.5275314	0.87029829	0.22520875
2	0.004	-1.5580393	0.038512694	-0.10716212	-0.94555022	0.091259606	0.005605305	-1.6893528	0.071677808	-0.11919871	-1.0828202	0.065932094	0.019550334	-1.6745092	0.093675929	-0.037983567	-1.0633518	0.10590661	-0.056715616	NaN	NaN	NaN	-1.1159477	0.030867938	-0.039345917	-1.5447838	0.43116273	-0.16591314	-1.1788715	0.45103239	0.075572457	-1.5372829	0.40765557	-0.04446669	-1.1619386	0.46548535	-0.051827504	-1.4246787	0.80516769	-0.2345645	-1.3358823	0.83170004	0.14330431	-1.3365698	0.90228899	-0.18597501	-1.2865293	0.91952607	0.055718848	-1.5060886	0.93380488	-0.020485103	-1.3183398	1.3790306	-0.21661404	-1.3522843	1.3848381	0.10357217	-1.415779	1.4150203	-0.071606015	-1.3004065	1.0342457	-0.28422946	-1.5403744	1.0950051	0.13672376	-1.0706737	0.94438145	-0.23535105	-1.5248686	0.86991853	0.22543127
3	0.008	-1.5580336	0.038504977	-0.10712944	-0.93370859	0.093416923	0.0051126013	-1.6887259	0.072425818	-0.11885259	-1.0705079	0.066221246	0.02038044	-1.6741548	0.0941044	-0.03751757	-1.0522844	0.10629302	-0.056279087	NaN	NaN	NaN	-1.1035335	0.030523674	-0.037832188	-1.5418252	0.43076343	-0.16583271	-1.1731929	0.44965681	0.075928267	-1.5338645	0.40702274	-0.044297607	-1.1573452	0.46384252	-0.051793952	-1.4210143	0.80439357	-0.234505	-1.3300607	0.83034388	0.14320445	-1.3325482	0.90117114	-0.18644459	-1.2811947	0.91814255	0.055086632	-1.5009903	0.93246016	-0.019548977	-1.3137513	1.3777426	-0.21662566	-1.347055	1.3838382	0.10365107	-1.4109868	1.4137876	-0.071556749	-1.2937498	1.0329958	-0.28362865	-1.5354314	1.0951397	0.13697142	-1.0631223	0.94593026	-0.23346073	-1.5224719	0.86949742	0.2256001
4	0.012	-1.5579418	0.038512738	-0.10712742	-0.92233272	0.095471591	0.0046750086	-1.6882626	0.073192283	-0.11846249	-1.0588681	0.066460694	0.021222359	-1.6736746	0.094616693	-0.037045635	-1.0417588	0.1066536	-0.055772243	NaN	NaN	NaN	-1.091555	0.030190197	-0.03617427	-1.5393514	0.43026554	-0.16536402	-1.1672977	0.44843176	0.076346399	-1.5302614	0.40637343	-0.044155284	-1.1527427	0.4622706	-0.051682619	-1.4173702	0.80368948	-0.23439377	-1.3244005	0.8289616	0.14302221	-1.3284552	0.90008571	-0.18684719	-1.2757861	0.91682946	0.054483591	-1.4956569	0.93109776	-0.018418665	-1.3091289	1.3764925	-0.21659693	-1.3417053	1.3828613	0.10370346	-1.4061274	1.412582	-0.071402401	-1.2871219	1.0317554	-0.28299409	-1.5306549	1.0951199	0.13723612	-1.0556915	0.94749592	-0.23161196	-1.51994	0.86908403	0.22578604
5	0.016	-1.5577229	0.0385409	-0.10717746	-0.91151767	0.097380162	0.0042424566	-1.6879724	0.073982894	-0.11800745	-1.0478181	0.066683605	0.02212925	-1.6731027	0.095215352	-0.036578593	-1.0318173	0.10696018	-0.055193694	NaN	NaN	NaN	-1.0802003	0.029871355	-0.034504046	-1.536763	0.42978373	-0.16486325	-1.1612826	0.44735634	0.076789108	-1.5265402	0.40571338	-0.044011792	-1.1480747	0.46080739	-0.05148754	-1.4137899	0.80296924	-0.23399366	-1.3187885	0.82756714	0.14277387	-1.3242618	0.89903895	-0.18719082	-1.2703514	0.91556265	0.053888517	-1.4900391	0.92970969	-0.017051408	-1.3044741	1.375258	-0.21653282	-1.3363417	1.3819188	0.1037716	-1.4012169	1.411405	-0.071198868	-1.2805342	1.0305382	-0.28231008	-1.5258823	1.0948844	0.13733685	-1.0484019	0.94907007	-0.22981975	-1.5168729	0.86873257	0.22605715
6	0.02	-1.5574524	0.038565918	-0.10725017	-0.90129591	0.099092937	0.0037769757	-1.6877833	0.07480961	-0.11749054	-1.0372704	0.066923819	0.023133759	-1.6725017	0.095882962	-0.036122278	-1.0224263	0.10717817	-0.05455377	NaN	NaN	NaN	-1.0695818	0.029576314	-0.032946231	-1.5338166	0.4293592	-0.16449147	-1.1552768	0.44639842	0.077210279	-1.5227344	0.40505919	-0.043860926	-1.1432879	0.45946552	-0.051217562	-1.4102967	0.80218719	-0.23313183	-1.3130987	0.82618336	0.14250901	-1.319946	0.89805148	-0.18746482	-1.2648907	0.91431316	0.053294702	-1.4842723	0.92832407	-0.015600742	-1.2997921	1.3740382	-0.2164419	-1.3310189	1.3810183	0.10386999	-1.3962703	1.4102545	-0.070988951	-1.2739943	1.0293523	-0.28157079	-1.5209264	1.0944703	0.13724444	-1.0412286	0.95064617	-0.22807397	-1.5133885	0.86842976	0.22638346
